<svg width="200" height="200" viewBox="0 0 200 200" fill="none" xmlns="http://www.w3.org/2000/svg">
<circle cx="100" cy="100" r="100" fill="#D9D9D9"/>
<path d="M96.6468 46.7811C97.5449 44.0172 101.455 44.0172 102.353 46.7812L112.859 79.1135C113.26 80.3496 114.412 81.1864 115.712 81.1864H149.708C152.614 81.1864 153.822 84.9053 151.471 86.6135L123.968 106.596C122.916 107.36 122.476 108.714 122.878 109.95L133.383 142.282C134.281 145.046 131.118 147.345 128.767 145.637L101.263 125.654C100.212 124.89 98.7881 124.89 97.7366 125.654L70.2331 145.637C67.882 147.345 64.7185 145.046 65.6166 142.282L76.122 109.95C76.5236 108.714 76.0837 107.36 75.0322 106.596L47.5287 86.6135C45.1775 84.9053 46.3858 81.1864 49.292 81.1864H83.2883C84.5879 81.1864 85.7398 80.3496 86.1414 79.1135L96.6468 46.7811Z" fill="black"/>
</svg>
